<svg id="abelavatar" xmlns="http://www.w3.org/2000/svg" viewBox="0 0 790.38 804.17">
  <title>Abel Hii</title>

  <g class="background">
    <path class="badge-shadow" d="M537.4,137,785.9,256.66a83.83,83.83,0,0,1,45.33,56.85L892.6,582.4a83.77,83.77,0,0,1-16.18,70.89l-172,215.63A83.78,83.78,0,0,1,639,900.47H363.14a83.76,83.76,0,0,1-65.5-31.55l-172-215.63a83.81,83.81,0,0,1-16.18-70.89l61.38-268.89a83.8,83.8,0,0,1,45.33-56.85L464.69,137A83.82,83.82,0,0,1,537.4,137Z" transform="translate(-104.32 -96.3)" style="fill: #339"/>
    <path class="badge" d="M534.33,104.6,782.82,224.26a83.82,83.82,0,0,1,45.34,56.85L889.53,550a83.81,83.81,0,0,1-16.18,70.89l-172,215.63a83.78,83.78,0,0,1-65.51,31.55H360.07a83.78,83.78,0,0,1-65.51-31.55l-172-215.63A83.81,83.81,0,0,1,106.42,550l61.37-268.89a83.82,83.82,0,0,1,45.34-56.85L461.62,104.6A83.75,83.75,0,0,1,534.33,104.6Z" transform="translate(-104.32 -96.3)" style="fill: #5353ad"/>
  </g>

  <g class="head">
    <g class="head-shadow shadow">
      <path d="M204,507s-17.46,55.77,29,64.89c0,0,10,106.81,93.6,156.16,0,0,57,46.65,139.24,61.52,0,0,113.39,12.84,167.1-27.72,0,0,68.35-43.56,92.68-87.12,3.56-6.37,26.75-58.75,35.86-97.43,0,0,49.78-.06,35.55-72.37S204,507,204,507Z" transform="translate(-104.32 -96.3)" style="fill: #339"/>
    </g>

    <g class="ears">
      <g class="left-ear">
        <circle cx="117.4" cy="403.7" r="37.06" style="fill: #f4d0e4"/>
        <path d="M256.15,502.69s-23.69,15.51-40.67-2.78" transform="translate(-104.32 -96.3)" style="fill: none;stroke: #6d555e;stroke-linecap: round;stroke-miterlimit: 10;stroke-width: 3px"/>
        <path d="M227,484.08s-20.54,13-8.3,31.6" transform="translate(-104.32 -96.3)" style="fill: none;stroke: #6d555e;stroke-linecap: round;stroke-miterlimit: 10;stroke-width: 3px"/>
      </g>
      <g class="right-ear">
        <circle cx="674.53" cy="403.7" r="37.06" style="fill: #f4d0e4"/>
        <path d="M742.69,502.06s23.4,15.95,40.72-2" transform="translate(-104.32 -96.3)" style="fill: none;stroke: #6d555e;stroke-linecap: round;stroke-miterlimit: 10;stroke-width: 3px"/>
        <path d="M772.16,484s20.3,13.38,7.72,31.75" transform="translate(-104.32 -96.3)" style="fill: none;stroke: #6d555e;stroke-linecap: round;stroke-miterlimit: 10;stroke-width: 3px"/>
      </g>
    </g>

    <circle class="face" cx="395.68" cy="403.7" r="258.09" style="fill: #f9dce7"/>

    <g class="hair">
      <path class="hair-shadow2 shadow" d="M493.05,377.19s57.77,82.8,98,80.75,29.67-22.18,29.67-22.18l-97.15-82.58Z" transform="translate(-104.32 -96.3)" style="fill: #edc8d9"/>
      <path class="hair-shadow1 shadow" d="M342.2,426.6c-5.45,22.18,17.12,39.78,38.23,31.06q1.59-.65,3.24-1.47s-24.43-.38-12-55.73Z" transform="translate(-104.32 -96.3)" style="fill: #edc8d9"/>
      <path class="main-hair" d="M640.06,402.53a11.93,11.93,0,0,1,1.91,2.1c19.72,18.53,96.78,89.27,113.9,62.27,13.66-21.53,9.21-63.38,4.66-89.17A146,146,0,0,0,745,333.23c-2-3.61-4.2-7.52-6.69-11.61a191.54,191.54,0,0,0-51.45-55.52c-20.6-14.92-52.13-36.12-80.21-48.19C560.12,197.9,503.74,203,503.74,203s-125.32-3.88-197.12,68.64C244,334.91,239.75,428.17,239.69,451a20.21,20.21,0,0,0,13.64,19.26c4.61,1.55,10.75,2.23,18.94,1.17,26.68-3.47,86.62-58.12,98.39-69.06C370.66,402.37,488.92,261,640.06,402.53Z" transform="translate(-104.32 -96.3)" style="fill: #212126"/>
      <path class="hair-shadow shadow" d="M371.7,400.46s28.26-66.64,78-122.75c0,0-66.16,49.74-107.73,148.75Z" transform="translate(-104.32 -96.3)"/>
      <path class="hair-fringe" d="M450.45,277.89s-86.82,106.86-84.1,146.91a59.46,59.46,0,0,1,.16,6.4c-.3,6.77.47,22,12.88,25.74,0,0,10.72,6.43,34.09-9.46,0,0,53.83-33.87,90.69-73.62,0,0,72.47,84.43,100,84.55,2.09,0,15,.36,26.21-5.1a28.51,28.51,0,0,0,15.67-23c.72-7.71.81-19-3.55-25.49a69.4,69.4,0,0,1-4.92-8.3c-8.74-18.2-38.58-75.92-84.48-119.27C497.92,225.11,450.45,277.89,450.45,277.89Z" transform="translate(-104.32 -96.3)" style="fill: #212126"/>
    </g>

    <g class="glasses">
      <circle cx="231.24" cy="358.78" r="143.04" style="fill: none;stroke: #88b9ea;stroke-miterlimit: 10;stroke-width: 3px"/>
      <circle cx="562.84" cy="358.78" r="143.04" style="fill: none;stroke: #88b9ea;stroke-miterlimit: 10;stroke-width: 3px"/>
      <line x1="419.8" y1="358.78" x2="374.28" y2="358.78" style="fill: none;stroke: #88b9ea;stroke-miterlimit: 10;stroke-width: 3px"/>
    </g>

    <g class="inner-face">
      
      <g class="nose">
        <ellipse class="nose-2" data-name="nose" cx="395.68" cy="398.59" rx="42.95" ry="29.95" style="fill: #f27293;stroke: #f27293;stroke-miterlimit: 10;stroke-width: 3px"/>
        <ellipse class="left-nostril" cx="381.09" cy="398.59" rx="7.64" ry="12.29" style="fill: #8c465a"/>
        <ellipse class="right-nostril" cx="411.65" cy="398.59" rx="7.64" ry="12.29" style="fill: #8c465a"/>
      </g>
      
      <path class="mouth" d="M516,549c-1.72,11.23-13.67,11.23-13.67,11.23-12.89,0-15.55-11.23-15.55-11.23" transform="translate(-104.32 -96.3)" style="fill: none;stroke: #6d555e;stroke-linecap: round;stroke-miterlimit: 10;stroke-width: 3px"/>
      
      <g class="open-mouth">
        <path class="open-mouth-black" d="M516,549c-1.72,11.23-13.67,11.23-13.67,11.23-12.89,0-15.55-11.23-15.55-11.23Z" transform="translate(-104.32 -96.3)" style="fill: #352a2e"/>
        <path class="open-mouth-tongue" d="M494.37,557.7a12.61,12.61,0,0,1,2-2,8.29,8.29,0,0,1,9.1-.72,6.1,6.1,0,0,1,2.85,3,18.78,18.78,0,0,1-7,1.28A20.23,20.23,0,0,1,494.37,557.7Z" transform="translate(-104.32 -96.3)" style="fill: #ee4289"/>
        <path class="open-mouth-outline" d="M516,549c-1.72,11.23-13.67,11.23-13.67,11.23-12.89,0-15.55-11.23-15.55-11.23Z" transform="translate(-104.32 -96.3)" style="fill: none;stroke: #77616a;stroke-linecap: round;stroke-linejoin: round;stroke-width: 3px"/>
      </g>
      
      <g class="eyes">
        <path class="left-eye2" d="M433.23,479.36c0,10.24-12.14,10.24-12.14,10.24-12.89,0-12.18-10.24-12.18-10.24" transform="translate(-104.32 -96.3)" style="fill: none;stroke: #231f20;stroke-miterlimit: 10;stroke-width: 3px"/>
        <g class="left-eye">
          <circle cx="316.77" cy="382.23" r="12.18" style="stroke: #231f20;stroke-miterlimit: 10;stroke-width: 3px"/>
          <circle cx="312.06" cy="380.44" r="1.62" style="fill: #efefef"/>
        </g>
        <path class="right-eye2" d="M591.08,479.36c0,10.24-12.15,10.24-12.15,10.24-12.89,0-12.18-10.24-12.18-10.24" transform="translate(-104.32 -96.3)" style="fill: none;stroke: #231f20;stroke-linecap: round;stroke-miterlimit: 10;stroke-width: 3px"/>
        <g class="right-eye">
          <circle cx="474.59" cy="382.23" r="12.18" style="stroke: #231f20;stroke-miterlimit: 10;stroke-width: 3px"/>
          <circle cx="470.15" cy="380.61" r="1.62" style="fill: #efefef"/>
        </g>
      </g>
      
      <g class="eyebrows">
        <ellipse class="eyebrow-left" cx="421.07" cy="439.95" rx="16.98" ry="4.5" transform="translate(-169.36 -23.16) rotate(-9.22)" style="fill: #635f5f"/>
        <ellipse class="eyebrow-right" cx="578.91" cy="439.95" rx="4.5" ry="16.98" transform="translate(-56.97 839.78) rotate(-80.26)" style="fill: #635f5f"/>
      </g>
    </g>
    
  </g>
</svg>
